<svg width="118" height="40" viewBox="0 0 118 40" fill="none" xmlns="http://www.w3.org/2000/svg">
<g filter="url(#filter0_d)">
<path fill-rule="evenodd" clip-rule="evenodd" d="M43.4147 14.7788C46.1921 14.7788 47.1176 12.9197 47.1176 10.3633C47.1176 5.42524 43.4723 5.83202 43.1836 5.83202H41.8525V14.7788H43.4147ZM43.5887 13.2102V7.45855C45.0351 7.45855 45.3826 9.25984 45.3826 10.3633C45.3826 11.4667 44.9769 13.268 43.5887 13.2102ZM52.325 5.83202V14.7788H55.912V13.1523H54.1182V11.1184H55.6804V9.43342H54.1182V7.51641H55.912V5.83202H52.325ZM64.8793 6.18035C64.4166 5.88988 63.8963 5.71512 63.3748 5.71512C61.8132 5.71512 61.0036 6.93546 61.0036 8.32938C61.0036 9.66603 61.6398 10.3048 62.6816 11.0021C63.1443 11.3504 63.7229 11.583 63.7229 12.2803C63.7229 12.8612 63.2602 13.268 62.6816 13.268C62.1601 13.268 61.7562 13.0939 61.3505 12.8034V14.4884C61.7556 14.7788 62.3918 14.8946 62.8551 14.8946C64.533 14.8946 65.4009 13.7327 65.4009 12.164C65.4009 9.7239 62.7392 9.66604 62.7392 8.15522C62.7392 7.63213 63.0873 7.28379 63.6076 7.28379C64.128 7.28379 64.533 7.57427 64.8799 7.86474V6.18035H64.8793ZM70.7229 14.7788H72.4597V5.83202H70.7229V14.7788ZM80.8479 9.8402V11.4667H81.9468C81.9468 12.1061 81.8321 13.268 80.9061 13.268C79.6326 13.268 79.575 11.2347 79.575 10.3048C79.575 9.49187 79.6896 7.2838 80.9061 7.34225C81.5423 7.34225 81.7157 8.0395 81.7733 8.50414L83.5095 7.80688C83.1044 6.58713 82.236 5.71512 80.8479 5.71512C78.3609 5.71512 77.7236 8.32938 77.7236 10.3633C77.7236 12.3387 78.4755 14.8946 80.8479 14.8946C83.2779 14.8946 83.7406 12.3966 83.7406 10.5375V9.8402H80.8479ZM88.948 5.83202V14.7788H90.683V10.3048L90.5684 9.43342L90.626 9.37556L92.7667 14.7788H94.4447V5.83202H92.7097V9.89865C92.7097 10.3054 92.7097 10.7707 92.8243 11.2353L90.6266 5.83261H88.948V5.83202ZM99.9414 5.83202V14.7788H103.527V13.1523H101.676V11.1184H103.297V9.43342H101.676V7.51641H103.47V5.83202H99.9414ZM110.586 14.7788V10.6538H110.644L112.148 14.7788H114L112.496 10.7116C113.363 10.247 113.71 9.37556 113.71 8.38724C113.71 6.00559 111.743 5.83143 110.586 5.83143H108.851V14.7783H110.586V14.7788ZM110.586 7.34225H110.818C111.744 7.2838 112.033 7.80688 112.033 8.44628C112.033 9.14294 111.685 9.72448 110.933 9.72448L110.586 9.66662V7.34225ZM41.9684 20.3563V21.0536H42.952V26.5726H43.7622V21.0536H44.6876V20.3563H41.9684ZM49.3165 20.3563V26.5726H51.573V25.8747H50.1267V23.7257H51.399V23.029H50.1267V21.0536H51.573V20.3563H49.3165ZM58.7471 20.4726C58.5154 20.2984 58.342 20.2984 58.0527 20.2984C56.3747 20.2984 56.2013 22.3312 56.2013 23.5515C56.2013 24.8882 56.433 26.6889 58.1109 26.6889C58.3426 26.6889 58.5737 26.6298 58.7477 26.5147V25.7596C58.6319 25.8747 58.4584 25.8747 58.285 25.8747C57.1279 25.8747 57.0697 24.3066 57.0697 23.4936C57.0697 22.7385 57.0697 21.0536 58.2268 21.0536C58.4002 21.0536 58.5737 21.1114 58.7477 21.2277V20.4726H58.7471ZM63.5494 20.3563V26.5726H64.4166V23.4936H65.6313V26.5726H66.4421V20.3563H65.6313V22.7964H64.4166V20.3563H63.5494ZM72.2851 21.8093L73.732 26.5726H74.484V20.3563H73.6744V22.5644L73.9055 25.0617H73.8478L72.4009 20.3563H71.6489V26.5726H72.4597V24.3066L72.3433 22.2149L72.2851 21.8093ZM81.1372 20.2984C79.5168 20.2984 79.5168 22.3312 79.5168 23.4936C79.5168 24.5971 79.5168 26.6889 81.1372 26.6889C82.7575 26.6889 82.7575 24.5971 82.7575 23.4936C82.7575 22.3312 82.7575 20.2984 81.1372 20.2984ZM81.1372 21.0536C81.7733 21.0536 81.8891 22.157 81.8891 23.4936C81.8891 24.7713 81.7733 25.8747 81.1372 25.8747C80.501 25.8747 80.3852 24.7713 80.3852 23.4936C80.3852 22.1576 80.501 21.0536 81.1372 21.0536ZM87.7333 20.3563V26.5726H89.9898V25.8747H88.6017V20.3563H87.7333ZM96.1221 20.2984C94.5029 20.2984 94.5029 22.3312 94.5029 23.4936C94.5029 24.5971 94.5029 26.6889 96.1221 26.6889C97.6848 26.6889 97.7425 24.5971 97.7425 23.4936C97.7425 22.3312 97.6848 20.2984 96.1221 20.2984ZM96.1221 21.0536C96.7594 21.0536 96.8741 22.157 96.8741 23.4936C96.8741 24.7713 96.7594 25.8747 96.1221 25.8747C95.4859 25.8747 95.3701 24.7713 95.3701 23.4936C95.3695 22.1576 95.4859 21.0536 96.1221 21.0536ZM104.222 23.3195V24.0161H104.858V24.3645C104.858 25.8174 104.511 25.8753 104.165 25.8753C103.816 25.8753 103.47 25.6433 103.47 23.4942C103.47 21.9834 103.527 21.0541 104.165 21.0541C104.685 21.0541 104.801 21.4603 104.858 21.8671L105.669 21.5188C105.437 20.7046 105.032 20.299 104.165 20.299C102.718 20.299 102.602 21.7508 102.602 23.4942C102.602 25.2365 102.775 26.6895 104.222 26.6895C105.9 26.6895 105.727 24.5977 105.727 23.3779V23.3201H104.222V23.3195ZM110.181 20.3563L111.454 23.8998V26.5726H112.264V23.8998L113.422 20.3563H112.553L111.975 22.4481L111.86 23.261L111.108 20.3563H110.181Z" fill="#333333"/>
<path fill-rule="evenodd" clip-rule="evenodd" d="M11.5358 25.8747C11.3042 25.7005 9.62618 23.3195 9.2793 21.3428C22.5862 33.8344 38.2655 22.97 33.6948 13.6164C33.6366 13.4422 33.5214 13.268 33.3473 13.0354C33.3473 12.6871 33.2321 11.6415 33.1739 11.2926L33.579 11.6988C39.8271 19.1354 34.5044 27.5591 26.5207 29.7672C19.6935 31.3359 14.9494 28.8963 11.5358 25.8747Z" fill="#828282"/>
<path fill-rule="evenodd" clip-rule="evenodd" d="M10.7835 11.8157C9.45294 13.3265 9.10547 15.1856 9.10547 15.1856C10.2625 21.112 15.4123 22.3896 15.4123 22.3896C9.91565 18.2067 10.7835 11.8157 10.7835 11.8157Z" fill="#828282"/>
<path fill-rule="evenodd" clip-rule="evenodd" d="M9.62663 5.48312C6.67574 7.28442 5.63449 10.3049 6.0972 12.2803C5.28761 13.7911 5.11357 14.1979 4.47742 16.4054C2.56837 9.54976 7.48593 5.83205 9.62663 5.48312Z" fill="#828282"/>
<path fill-rule="evenodd" clip-rule="evenodd" d="M31.0336 22.389C29.9923 23.3195 29.3556 23.842 28.0251 24.7713C36.9348 7.45856 18.999 -3.2317 12.1142 6.35452C11.8825 6.47083 9.97346 7.40011 9.45312 7.80689C14.2549 -5.43977 31.9014 -0.269103 33.5794 11.6994C33.9263 15.0693 33.7528 18.0904 31.0336 22.389Z" fill="#C4C4C4"/>
<path fill-rule="evenodd" clip-rule="evenodd" d="M23.6278 5.30896C24.4956 5.65729 25.19 6.29668 25.8843 6.99394C13.2718 4.14706 7.83269 11.6415 7.77508 17.7421C7.71746 24.7713 13.9079 32.3242 22.4125 30.1752C22.4701 30.1752 22.8752 30.0589 23.1069 29.942C24.0323 29.8257 24.7849 29.7678 25.421 29.6515C25.3052 29.7105 25.1894 29.8257 25.1894 29.8257C14.1972 36.3324 3.55129 27.0951 4.01459 17.1611C5.05584 8.73678 13.387 2.0553 23.6278 5.30896Z" fill="#C4C4C4"/>
<path fill-rule="evenodd" clip-rule="evenodd" d="M11.5358 25.8747C11.3042 25.7005 9.62618 23.3195 9.2793 21.3428C15.1229 26.804 21.4291 27.7923 26.2315 26.3978C26.5789 27.6175 26.9258 28.4305 26.5207 29.7671C19.6935 31.3358 14.9494 28.8963 11.5358 25.8747Z" fill="#828282"/>
</g>
<defs>
<filter id="filter0_d" x="0" y="0" width="118" height="40" filterUnits="userSpaceOnUse" color-interpolation-filters="sRGB">
<feFlood flood-opacity="0" result="BackgroundImageFix"/>
<feColorMatrix in="SourceAlpha" type="matrix" values="0 0 0 0 0 0 0 0 0 0 0 0 0 0 0 0 0 0 127 0"/>
<feOffset dy="4"/>
<feGaussianBlur stdDeviation="2"/>
<feColorMatrix type="matrix" values="0 0 0 0 0 0 0 0 0 0 0 0 0 0 0 0 0 0 0.25 0"/>
<feBlend mode="normal" in2="BackgroundImageFix" result="effect1_dropShadow"/>
<feBlend mode="normal" in="SourceGraphic" in2="effect1_dropShadow" result="shape"/>
</filter>
</defs>
</svg>
